<mxfile host="app.diagrams.net" modified="2022-02-26T21:20:08.063Z" agent="5.0 (X11)" etag="Zei4qBk1OYqGSxKFKPwl" version="16.6.4" type="github">
  <diagram id="kgpKYQtTHZ0yAKxKKP6v" name="Page-1">
    <mxGraphModel dx="2322" dy="727" grid="1" gridSize="10" guides="1" tooltips="1" connect="1" arrows="1" fold="1" page="1" pageScale="1" pageWidth="300" pageHeight="500" math="0" shadow="0">
      <root>
        <mxCell id="0" />
        <mxCell id="1" parent="0" />
        <mxCell id="3nuBFxr9cyL0pnOWT2aG-1" value="Farmer" style="shape=umlLifeline;perimeter=lifelinePerimeter;container=1;collapsible=0;recursiveResize=0;rounded=0;shadow=0;strokeWidth=1;" parent="1" vertex="1">
          <mxGeometry x="-630" y="150" width="100" height="700" as="geometry" />
        </mxCell>
        <mxCell id="3nuBFxr9cyL0pnOWT2aG-2" value="" style="points=[];perimeter=orthogonalPerimeter;rounded=0;shadow=0;strokeWidth=1;fillColor=#d0cee2;strokeColor=#56517e;" parent="3nuBFxr9cyL0pnOWT2aG-1" vertex="1">
          <mxGeometry x="45" y="80" width="10" height="180" as="geometry" />
        </mxCell>
        <mxCell id="3nuBFxr9cyL0pnOWT2aG-5" value="Distributor" style="shape=umlLifeline;perimeter=lifelinePerimeter;container=1;collapsible=0;recursiveResize=0;rounded=0;shadow=0;strokeWidth=1;" parent="1" vertex="1">
          <mxGeometry x="-470" y="150" width="100" height="700" as="geometry" />
        </mxCell>
        <mxCell id="ZHyIFLZmsVQ9-cbwYY4o-5" value="packItem()" style="verticalAlign=bottom;endArrow=block;entryX=0.48;entryY=0.08;shadow=0;strokeWidth=1;entryDx=0;entryDy=0;entryPerimeter=0;" parent="3nuBFxr9cyL0pnOWT2aG-5" edge="1">
          <mxGeometry relative="1" as="geometry">
            <mxPoint x="-105" y="165.99999999999994" as="sourcePoint" />
            <mxPoint x="208" y="165.99999999999994" as="targetPoint" />
          </mxGeometry>
        </mxCell>
        <mxCell id="ZHyIFLZmsVQ9-cbwYY4o-6" value="sellItem()" style="verticalAlign=bottom;endArrow=block;shadow=0;strokeWidth=1;" parent="3nuBFxr9cyL0pnOWT2aG-5" target="3nuBFxr9cyL0pnOWT2aG-5" edge="1">
          <mxGeometry relative="1" as="geometry">
            <mxPoint x="-104" y="208.99999999999994" as="sourcePoint" />
            <mxPoint x="209" y="208.99999999999994" as="targetPoint" />
          </mxGeometry>
        </mxCell>
        <mxCell id="ZHyIFLZmsVQ9-cbwYY4o-7" value="buyItem()" style="html=1;verticalAlign=bottom;endArrow=block;rounded=0;fontSize=11;exitX=0.1;exitY=0;exitDx=0;exitDy=0;exitPerimeter=0;" parent="3nuBFxr9cyL0pnOWT2aG-5" source="dcxFwF6ZALwwfBUGg-lV-54" edge="1">
          <mxGeometry width="80" relative="1" as="geometry">
            <mxPoint x="39" y="250" as="sourcePoint" />
            <mxPoint x="-104" y="250" as="targetPoint" />
          </mxGeometry>
        </mxCell>
        <mxCell id="3nuBFxr9cyL0pnOWT2aG-8" value="harvestItem()" style="verticalAlign=bottom;endArrow=block;shadow=0;strokeWidth=1;entryX=0.7;entryY=-0.002;entryDx=0;entryDy=0;entryPerimeter=0;" parent="1" source="3nuBFxr9cyL0pnOWT2aG-2" target="dcxFwF6ZALwwfBUGg-lV-10" edge="1">
          <mxGeometry relative="1" as="geometry">
            <mxPoint x="-395" y="230" as="sourcePoint" />
            <mxPoint x="-320" y="230" as="targetPoint" />
          </mxGeometry>
        </mxCell>
        <mxCell id="dcxFwF6ZALwwfBUGg-lV-9" value="Coffee" style="shape=umlLifeline;perimeter=lifelinePerimeter;container=1;collapsible=0;recursiveResize=0;rounded=0;shadow=0;strokeWidth=1;" parent="1" vertex="1">
          <mxGeometry x="-310" y="150" width="100" height="700" as="geometry" />
        </mxCell>
        <mxCell id="dcxFwF6ZALwwfBUGg-lV-10" value="" style="points=[];perimeter=orthogonalPerimeter;rounded=0;shadow=0;strokeWidth=1;fillColor=#d0cee2;strokeColor=#56517e;" parent="dcxFwF6ZALwwfBUGg-lV-9" vertex="1">
          <mxGeometry x="45" y="80" width="10" height="580" as="geometry" />
        </mxCell>
        <mxCell id="dcxFwF6ZALwwfBUGg-lV-13" value="Retailer" style="shape=umlLifeline;perimeter=lifelinePerimeter;container=1;collapsible=0;recursiveResize=0;rounded=0;shadow=0;strokeWidth=1;" parent="1" vertex="1">
          <mxGeometry x="-150" y="150" width="100" height="700" as="geometry" />
        </mxCell>
        <mxCell id="ZHyIFLZmsVQ9-cbwYY4o-14" value="receiveItem()" style="html=1;verticalAlign=bottom;endArrow=block;rounded=0;fontSize=11;" parent="dcxFwF6ZALwwfBUGg-lV-13" edge="1">
          <mxGeometry x="-0.5833" width="80" relative="1" as="geometry">
            <mxPoint x="45" y="420" as="sourcePoint" />
            <mxPoint x="-267" y="420" as="targetPoint" />
            <mxPoint as="offset" />
          </mxGeometry>
        </mxCell>
        <mxCell id="dcxFwF6ZALwwfBUGg-lV-20" value="Consumer" style="shape=umlLifeline;perimeter=lifelinePerimeter;container=1;collapsible=0;recursiveResize=0;rounded=0;shadow=0;strokeWidth=1;" parent="1" vertex="1">
          <mxGeometry x="10" y="150" width="110" height="700" as="geometry" />
        </mxCell>
        <mxCell id="dcxFwF6ZALwwfBUGg-lV-21" value="" style="points=[];perimeter=orthogonalPerimeter;rounded=0;shadow=0;strokeWidth=1;fillColor=#d0cee2;strokeColor=#56517e;" parent="dcxFwF6ZALwwfBUGg-lV-20" vertex="1">
          <mxGeometry x="51" y="470" width="10" height="190" as="geometry" />
        </mxCell>
        <mxCell id="ZHyIFLZmsVQ9-cbwYY4o-21" value="" style="ellipse;html=1;shape=endState;fillColor=#000000;strokeColor=#ff0000;" parent="dcxFwF6ZALwwfBUGg-lV-20" vertex="1">
          <mxGeometry x="80" y="640" width="30" height="30" as="geometry" />
        </mxCell>
        <mxCell id="dcxFwF6ZALwwfBUGg-lV-43" value="" style="points=[];perimeter=orthogonalPerimeter;rounded=0;shadow=0;strokeWidth=1;fillColor=#d0cee2;strokeColor=#56517e;" parent="1" vertex="1">
          <mxGeometry x="-105" y="450" width="10" height="290" as="geometry" />
        </mxCell>
        <mxCell id="dcxFwF6ZALwwfBUGg-lV-54" value="" style="points=[];perimeter=orthogonalPerimeter;rounded=0;shadow=0;strokeWidth=1;fillColor=#d0cee2;strokeColor=#56517e;" parent="1" vertex="1">
          <mxGeometry x="-425" y="400" width="10" height="190" as="geometry" />
        </mxCell>
        <mxCell id="ZHyIFLZmsVQ9-cbwYY4o-4" value="processItem()" style="verticalAlign=bottom;endArrow=block;entryX=0.48;entryY=0.08;shadow=0;strokeWidth=1;entryDx=0;entryDy=0;entryPerimeter=0;" parent="1" edge="1">
          <mxGeometry relative="1" as="geometry">
            <mxPoint x="-574" y="273.79999999999995" as="sourcePoint" />
            <mxPoint x="-261" y="273.79999999999995" as="targetPoint" />
          </mxGeometry>
        </mxCell>
        <mxCell id="ZHyIFLZmsVQ9-cbwYY4o-10" value="If enough ether" style="shape=umlFrame;whiteSpace=wrap;html=1;fillColor=#b0e3e6;strokeColor=#0e8088;" parent="1" vertex="1">
          <mxGeometry x="-680" y="420" width="630" height="50" as="geometry" />
        </mxCell>
        <mxCell id="ZHyIFLZmsVQ9-cbwYY4o-11" value="else" style="shape=umlFrame;whiteSpace=wrap;html=1;fillColor=#fad9d5;strokeColor=#ae4132;" parent="1" vertex="1">
          <mxGeometry x="-680" y="470" width="630" height="50" as="geometry" />
        </mxCell>
        <mxCell id="ZHyIFLZmsVQ9-cbwYY4o-8" value="shipItem()" style="verticalAlign=bottom;endArrow=block;shadow=0;strokeWidth=1;" parent="1" edge="1">
          <mxGeometry x="-0.6802" relative="1" as="geometry">
            <mxPoint x="-413" y="450" as="sourcePoint" />
            <mxPoint x="-100" y="450" as="targetPoint" />
            <mxPoint as="offset" />
          </mxGeometry>
        </mxCell>
        <mxCell id="ZHyIFLZmsVQ9-cbwYY4o-13" value="revert" style="html=1;verticalAlign=bottom;endArrow=block;dashed=1;endSize=8;rounded=0;fontSize=11;endFill=1;" parent="1" edge="1">
          <mxGeometry x="-0.1054" relative="1" as="geometry">
            <mxPoint x="-574.75" y="500" as="sourcePoint" />
            <mxPoint x="-430" y="500" as="targetPoint" />
            <mxPoint as="offset" />
          </mxGeometry>
        </mxCell>
        <mxCell id="ZHyIFLZmsVQ9-cbwYY4o-16" value="purchaseItem()" style="html=1;verticalAlign=bottom;endArrow=block;rounded=0;fontSize=11;entryX=1.3;entryY=0.19;entryDx=0;entryDy=0;entryPerimeter=0;" parent="1" edge="1">
          <mxGeometry width="80" relative="1" as="geometry">
            <mxPoint x="57" y="620.26" as="sourcePoint" />
            <mxPoint x="-94" y="620.2" as="targetPoint" />
          </mxGeometry>
        </mxCell>
        <mxCell id="ZHyIFLZmsVQ9-cbwYY4o-19" value="" style="ellipse;html=1;shape=startState;fillColor=#000000;strokeColor=#ff0000;" parent="1" vertex="1">
          <mxGeometry x="-688" y="219" width="30" height="30" as="geometry" />
        </mxCell>
        <mxCell id="ZHyIFLZmsVQ9-cbwYY4o-20" value="" style="edgeStyle=orthogonalEdgeStyle;html=1;verticalAlign=bottom;endArrow=open;endSize=8;strokeColor=#ff0000;rounded=0;" parent="1" source="ZHyIFLZmsVQ9-cbwYY4o-19" edge="1">
          <mxGeometry relative="1" as="geometry">
            <mxPoint x="-600" y="234" as="targetPoint" />
          </mxGeometry>
        </mxCell>
      </root>
    </mxGraphModel>
  </diagram>
</mxfile>
